<svg id="Capa_1" data-name="Capa 1" xmlns="http://www.w3.org/2000/svg" viewBox="0 0 145.76 138.55"><defs><style>.cls-1,.cls-13,.cls-14,.cls-18,.cls-19,.cls-20,.cls-3{fill:none;stroke-miterlimit:10;}.cls-1{stroke:#fff;}.cls-1,.cls-13,.cls-14,.cls-18,.cls-19,.cls-20{stroke-linecap:round;}.cls-1,.cls-14{stroke-width:4.83px;}.cls-2{fill:#54b5b6;}.cls-3{stroke:#177d75;stroke-width:4.37px;}.cls-4{fill:#177d75;}.cls-5{fill:#49999d;}.cls-6{fill:#2e5e5f;}.cls-7{fill:#89cdd0;}.cls-8{fill:#fff;}.cls-9{fill:#f18618;}.cls-10{fill:#82878c;}.cls-11{fill:#51565b;}.cls-12{fill:#373c41;}.cls-13,.cls-14{stroke:#89cdd0;}.cls-13,.cls-20{stroke-width:5.37px;}.cls-15{fill:#696e73;}.cls-16{fill:#ed691f;}.cls-17{fill:#bde1e4;}.cls-18{stroke:#49999d;}.cls-18,.cls-19{stroke-width:6.44px;}.cls-19{stroke:#54b5b6;}.cls-20{stroke:#bde1e4;}</style></defs><path class="cls-1" d="M59.7,80,79,73.79A16,16,0,0,1,99.07,84.1l4.38,13.63a15.57,15.57,0,0,0,29.65-9.54l-1.39-4.33A16,16,0,0,1,142,63.77l9.2-3" transform="translate(-7.88 -10.28)"/><path class="cls-2" d="M16,12H26.65A4.33,4.33,0,0,1,31,16.3v2.23a0,0,0,0,1,0,0H11.64a0,0,0,0,1,0,0V16.3A4.33,4.33,0,0,1,16,12Z" transform="translate(-11.53 -3.02) rotate(-17.83)"/><path class="cls-3" d="M52.15,24.88l3.14-1a3.07,3.07,0,0,1,3.86,2l7.66,23.82-8.34,2.68" transform="translate(-7.88 -10.28)"/><rect class="cls-4" x="11.72" y="15.89" width="43.46" height="43.61" rx="6.98" transform="translate(-17.82 1.77) rotate(-17.83)"/><path class="cls-2" d="M73.63,91.71l10.83-3.49L74.4,57a13.93,13.93,0,0,0-17.51-9L43.38,52.3l3.49,10.83,13.5-4.34a2.55,2.55,0,0,1,3.2,1.64Z" transform="translate(-7.88 -10.28)"/><path class="cls-5" d="M74,71.35a4.79,4.79,0,0,0,6,3.1l-2.94-9.14A4.79,4.79,0,0,0,74,71.35Z" transform="translate(-7.88 -10.28)"/><path class="cls-6" d="M73.64,70.27a4.8,4.8,0,0,0,6,3.1l-2.94-9.14A4.79,4.79,0,0,0,73.64,70.27Z" transform="translate(-7.88 -10.28)"/><path class="cls-7" d="M67.89,73.91l10.78-3.47a1.71,1.71,0,0,0-1-3.25L66.85,70.66Z" transform="translate(-7.88 -10.28)"/><path class="cls-8" d="M72.54,53.21a6.49,6.49,0,0,1-11.73-1.4,6.43,6.43,0,0,1,.2-4.52A14,14,0,0,1,72.54,53.21Z" transform="translate(-7.88 -10.28)"/><rect class="cls-9" x="68.09" y="57.93" width="6.67" height="1.38" transform="translate(149.5 82.28) rotate(162.17)"/><rect class="cls-9" x="68.79" y="60.1" width="6.67" height="1.38" transform="translate(151.52 86.3) rotate(162.17)"/><rect class="cls-9" x="69.49" y="62.27" width="6.67" height="1.38" transform="translate(153.54 90.31) rotate(162.17)"/><rect class="cls-2" x="11.49" y="26.38" width="40.58" height="13.08" rx="3.35" transform="translate(-16.44 1.03) rotate(-17.83)"/><circle class="cls-7" cx="31.78" cy="32.93" r="18.27" transform="translate(-21.62 27.33) rotate(-51.88)"/><circle class="cls-10" cx="31.78" cy="32.93" r="14.23" transform="translate(-13.66 48.79) rotate(-80.85)"/><circle class="cls-11" cx="31.78" cy="32.93" r="12.15" transform="translate(-11.41 51.76) rotate(-85.53)"/><path class="cls-12" d="M38.84,23A12.15,12.15,0,0,1,21.77,39.81,12.15,12.15,0,1,0,38.84,23Z" transform="translate(-7.88 -10.28)"/><path class="cls-10" d="M29.55,24.68a10,10,0,0,1,1.65-1.31,9.73,9.73,0,0,0-2.35.44A9.5,9.5,0,0,0,25,26.14Z" transform="translate(-7.88 -10.28)"/><path class="cls-10" d="M23.35,28.4a9.55,9.55,0,0,0-.86,6.83L27,33.78A9.55,9.55,0,0,1,27.87,27Z" transform="translate(-7.88 -10.28)"/><line class="cls-13" x1="8.83" y1="44.89" x2="49.1" y2="31.94"/><rect class="cls-2" x="26.91" y="51.07" width="37.37" height="47.85" transform="translate(-28.65 7.28) rotate(-17.83)"/><rect class="cls-4" x="40.95" y="95.09" width="15.31" height="50.55" transform="translate(-42.4 10.38) rotate(-17.83)"/><rect class="cls-4" x="61.95" y="88.33" width="15.31" height="50.55" transform="translate(-39.32 16.49) rotate(-17.83)"/><path class="cls-2" d="M32.69,104.87l-10.83,3.48L11.8,77.08a13.94,13.94,0,0,1,9-17.51L34.3,55.23l3.48,10.83L24.27,70.4a2.55,2.55,0,0,0-1.64,3.19Z" transform="translate(-7.88 -10.28)"/><rect class="cls-5" x="32.35" y="60.76" width="24.33" height="23.51" transform="translate(-27.95 6.83) rotate(-17.83)"/><rect class="cls-8" x="32" y="59.68" width="24.33" height="23.51" transform="translate(-27.63 6.67) rotate(-17.83)"/><path class="cls-7" d="M62.56,138.76A7.65,7.65,0,1,0,48,143.45l1.06,3.32,14.57-4.69Z" transform="translate(-7.88 -10.28)"/><rect class="cls-11" x="48.97" y="144.38" width="15.31" height="1.84" transform="translate(-49.65 14.03) rotate(-17.83)"/><path class="cls-6" d="M56.27,119.07a7.71,7.71,0,1,1-9.7-5A7.72,7.72,0,0,1,56.27,119.07Z" transform="translate(-7.88 -10.28)"/><circle class="cls-8" cx="48.46" cy="119.98" r="7.71" transform="translate(-86.45 134.35) rotate(-78.99)"/><line class="cls-14" x1="33.24" y1="112.06" x2="47.92" y2="107.34"/><rect class="cls-6" x="31.9" y="88.46" width="37.44" height="4.55" transform="translate(-33.23 9.58) rotate(-17.83)"/><rect class="cls-5" x="33.04" y="64.54" width="9.82" height="5.44" transform="translate(-26.65 4.57) rotate(-17.83)"/><rect class="cls-11" x="34.57" y="71.13" width="9.82" height="1.77" transform="translate(-28.04 5.27) rotate(-17.83)"/><path class="cls-9" d="M41.69,78.49a2.52,2.52,0,1,1-3.17-1.62A2.52,2.52,0,0,1,41.69,78.49Z" transform="translate(-7.88 -10.28)"/><path class="cls-15" d="M49.83,75.87a3.18,3.18,0,1,1-4-2.05A3.18,3.18,0,0,1,49.83,75.87Z" transform="translate(-7.88 -10.28)"/><path class="cls-7" d="M48.67,76.25A2,2,0,1,1,46.21,75,2,2,0,0,1,48.67,76.25Z" transform="translate(-7.88 -10.28)"/><rect class="cls-9" x="45.8" y="62.16" width="5.81" height="5.81" transform="translate(-25.46 7.76) rotate(-17.83)"/><polygon class="cls-16" points="44.48 56.66 38.95 58.44 42.7 51.13 44.48 56.66"/><rect class="cls-6" x="52.34" y="70.64" width="11.88" height="5.02" transform="translate(-27.48 11.08) rotate(-17.83)"/><path class="cls-7" d="M33.08,106.1a5.68,5.68,0,0,1-10.82,3.48l-2.14-6.64,10.82-3.48Z" transform="translate(-7.88 -10.28)"/><line class="cls-13" x1="21.76" y1="91.58" x2="26.04" y2="94.86"/><polygon class="cls-7" points="61.13 76.94 25.45 88.41 41.82 88.52 48.26 86.45 61.13 76.94"/><path class="cls-5" d="M20.54,88.54a4.81,4.81,0,0,1-3.11,6l-2.94-9.15A4.82,4.82,0,0,1,20.54,88.54Z" transform="translate(-7.88 -10.28)"/><path class="cls-6" d="M20.19,87.46a4.81,4.81,0,0,1-3.1,6l-2.95-9.14A4.8,4.8,0,0,1,20.19,87.46Z" transform="translate(-7.88 -10.28)"/><path class="cls-7" d="M27,87.07,16.2,90.53a1.7,1.7,0,1,1-1-3.24l10.78-3.47Z" transform="translate(-7.88 -10.28)"/><path class="cls-11" d="M50,147h2.17a0,0,0,0,1,0,0v.2a2,2,0,0,1-2,2H50a0,0,0,0,1,0,0V147A0,0,0,0,1,50,147Z" transform="translate(65.36 -17.27) rotate(27.17)"/><path class="cls-11" d="M52.91,146h2.17a0,0,0,0,1,0,0v.2a2,2,0,0,1-2,2h-.2a0,0,0,0,1,0,0V146A0,0,0,0,1,52.91,146Z" transform="translate(65.25 -18.7) rotate(27.17)"/><path class="cls-11" d="M55.82,145.09H58a0,0,0,0,1,0,0v.2a2,2,0,0,1-2,2h-.2a0,0,0,0,1,0,0v-2.17A0,0,0,0,1,55.82,145.09Z" transform="translate(65.14 -20.14) rotate(27.17)"/><path class="cls-11" d="M58.74,144.15H60.9a0,0,0,0,1,0,0v.2a2,2,0,0,1-2,2h-.2a0,0,0,0,1,0,0v-2.17A0,0,0,0,1,58.74,144.15Z" transform="translate(65.04 -21.57) rotate(27.17)"/><path class="cls-11" d="M61.65,143.22h2.17a0,0,0,0,1,0,0v.2a2,2,0,0,1-2,2h-.2a0,0,0,0,1,0,0v-2.17A0,0,0,0,1,61.65,143.22Z" transform="translate(64.93 -23) rotate(27.17)"/><path class="cls-17" d="M53.44,135.8a6.54,6.54,0,0,1,1.12-.89,6.36,6.36,0,0,0-1.6.3,6.52,6.52,0,0,0-2.59,1.58Z" transform="translate(-7.88 -10.28)"/><path class="cls-17" d="M49.22,138.33a6.47,6.47,0,0,0-.58,4.63l3.07-1a6.49,6.49,0,0,1,.58-4.64Z" transform="translate(-7.88 -10.28)"/><path class="cls-17" d="M29,111.88a4.66,4.66,0,0,0,1,.05,4.32,4.32,0,0,1-1,.47,4.48,4.48,0,0,1-2.11.16Z" transform="translate(-7.88 -10.28)"/><path class="cls-17" d="M25.62,112.16a4.49,4.49,0,0,1-2.2-2.39l2.13-.68a4.52,4.52,0,0,0,2.21,2.38Z" transform="translate(-7.88 -10.28)"/><rect class="cls-5" x="18.52" y="97.49" width="12.89" height="3.79" transform="matrix(0.95, -0.31, 0.31, 0.95, -37.11, 2.14)"/><path class="cls-8" d="M11.13,73a6.5,6.5,0,0,0,8.72-8,6.41,6.41,0,0,0-2.8-3.55A14,14,0,0,0,11.13,73Z" transform="translate(-7.88 -10.28)"/><rect class="cls-9" x="11.85" y="76.02" width="6.67" height="1.38" transform="translate(-30.64 -1.95) rotate(-17.83)"/><rect class="cls-9" x="12.55" y="78.19" width="6.67" height="1.38" transform="translate(-31.27 -1.63) rotate(-17.83)"/><rect class="cls-9" x="13.25" y="80.35" width="6.67" height="1.38" transform="translate(-31.9 -1.31) rotate(-17.83)"/><path class="cls-7" d="M83.68,132a7.65,7.65,0,1,0-14.57,4.68L70.18,140l14.57-4.68Z" transform="translate(-7.88 -10.28)"/><rect class="cls-11" x="70.09" y="137.59" width="15.31" height="1.84" transform="translate(-46.56 20.17) rotate(-17.83)"/><circle class="cls-6" cx="70.09" cy="114.62" r="7.71" transform="translate(-71.8 113.97) rotate(-62.66)"/><path class="cls-8" d="M62.28,115.54a7.71,7.71,0,1,0,5-9.7A7.72,7.72,0,0,0,62.28,115.54Z" transform="translate(-7.88 -10.28)"/><line class="cls-14" x1="69.08" y1="100.54" x2="54.4" y2="105.26"/><path class="cls-7" d="M74,92.93a5.68,5.68,0,0,0,10.82-3.48l-2.13-6.64L71.9,86.29Z" transform="translate(-7.88 -10.28)"/><line class="cls-13" x1="66.47" y1="77.21" x2="64.9" y2="82.36"/><path class="cls-11" d="M71.11,140.17h2.17a0,0,0,0,1,0,0v.2a2,2,0,0,1-2,2h-.2a0,0,0,0,1,0,0v-2.17A0,0,0,0,1,71.11,140.17Z" transform="translate(64.59 -27.66) rotate(27.17)"/><path class="cls-11" d="M74,139.24H76.2a0,0,0,0,1,0,0v.2a2,2,0,0,1-2,2H74a0,0,0,0,1,0,0v-2.17A0,0,0,0,1,74,139.24Z" transform="translate(64.48 -29.1) rotate(27.17)"/><path class="cls-11" d="M76.95,138.3h2.17a0,0,0,0,1,0,0v.2a2,2,0,0,1-2,2h-.2a0,0,0,0,1,0,0V138.3A0,0,0,0,1,76.95,138.3Z" transform="translate(64.37 -30.53) rotate(27.17)"/><path class="cls-11" d="M79.86,137.36H82a0,0,0,0,1,0,0v.2a2,2,0,0,1-2,2h-.2a0,0,0,0,1,0,0v-2.17A0,0,0,0,1,79.86,137.36Z" transform="translate(64.27 -31.97) rotate(27.17)"/><path class="cls-11" d="M82.78,136.42h2.17a0,0,0,0,1,0,0v.2a2,2,0,0,1-2,2h-.2a0,0,0,0,1,0,0v-2.17A0,0,0,0,1,82.78,136.42Z" transform="translate(64.17 -33.4) rotate(27.17)"/><path class="cls-17" d="M74.56,129a6,6,0,0,1,1.12-.89,6.44,6.44,0,0,0-1.6.3A6.36,6.36,0,0,0,71.49,130Z" transform="translate(-7.88 -10.28)"/><path class="cls-17" d="M70.35,131.53a6.45,6.45,0,0,0-.58,4.64l3.06-1a6.48,6.48,0,0,1,.59-4.63Z" transform="translate(-7.88 -10.28)"/><path class="cls-17" d="M80.69,95.26a4.17,4.17,0,0,1-.78.62A4.35,4.35,0,0,0,81,95.67a4.41,4.41,0,0,0,1.8-1.09Z" transform="translate(-7.88 -10.28)"/><path class="cls-17" d="M83.62,93.51a4.54,4.54,0,0,0,.4-3.23L81.89,91a4.47,4.47,0,0,1-.41,3.22Z" transform="translate(-7.88 -10.28)"/><rect class="cls-5" x="70.26" y="80.85" width="12.89" height="3.79" transform="translate(-29.54 17.18) rotate(-17.83)"/><line class="cls-18" x1="7.58" y1="49.67" x2="52.91" y2="35.1"/><line class="cls-19" x1="14.81" y1="47.35" x2="26.55" y2="43.57"/><line class="cls-20" x1="15.33" y1="42.8" x2="23.47" y2="40.18"/></svg>