<svg id="Capa_1" data-name="Capa 1" xmlns="http://www.w3.org/2000/svg" viewBox="0 0 129.61 111.29"><defs><style>.cls-1{fill:#696e73;}.cls-2{fill:#f18618;}.cls-3{fill:#ed691f;}.cls-4{fill:#f6a31c;}</style></defs><path class="cls-1" d="M10.18,115l-5.3-3.58L76.69,5.11a3.19,3.19,0,0,1,4.44-.86h0A3.2,3.2,0,0,1,82,8.69Z" transform="translate(-4.88 -3.7)"/><path class="cls-2" d="M106.59,81.25c-12.76-18.33-42.2-12-54.94-30.33a8.53,8.53,0,0,1,0-9.62L71,12.72a4.72,4.72,0,0,1,7.69-.18c13,17.4,41.68,11.53,54.3,29.46a8.78,8.78,0,0,1,0,9.94L113.15,81.25A4,4,0,0,1,106.59,81.25Z" transform="translate(-4.88 -3.7)"/><path class="cls-3" d="M78.27,12l-.17-.21C69.79,25.3,60.28,37.92,52,51.43a26.16,26.16,0,0,0,2.32,2.77l26.55-39A26.06,26.06,0,0,1,78.27,12Z" transform="translate(-4.88 -3.7)"/><path class="cls-3" d="M106.76,81.51C93.67,62.23,62.41,69.84,50.41,49a5.89,5.89,0,0,1,.28-6.23L61.9,26.11c11.27,27,49.5,14.06,60.77,41.05L113,81.5A3.76,3.76,0,0,1,106.76,81.51Z" transform="translate(-4.88 -3.7)"/><path class="cls-4" d="M104.47,55.2a14.89,14.89,0,1,1-4-20.67A14.89,14.89,0,0,1,104.47,55.2Z" transform="translate(-4.88 -3.7)"/></svg>