<svg id="Capa_1" data-name="Capa 1" xmlns="http://www.w3.org/2000/svg" viewBox="0 0 148.99 148.99"><defs><style>.cls-1{fill:#00568d;}.cls-2{fill:#004775;}.cls-3{fill:#6eaa4f;}.cls-4{fill:#83bd50;}</style></defs><circle class="cls-1" cx="79.55" cy="79.55" r="74.49" transform="translate(-16.64 140.46) rotate(-80.9)"/><path class="cls-2" d="M79.55,5.06v149a74.5,74.5,0,1,0,0-149Z" transform="translate(-5.06 -5.06)"/><path class="cls-3" d="M154.05,79.55a74.32,74.32,0,0,0-26.13-56.63h-1.33A11.79,11.79,0,0,0,114.81,34.7h0a11.79,11.79,0,0,0,9.75,11.6H102.82A11.77,11.77,0,0,0,91,58.08h0a11.78,11.78,0,0,0,11.78,11.78h19.31a11.78,11.78,0,0,0-7.32,10.9h0a11.79,11.79,0,0,0,11.78,11.78H152.9A75.07,75.07,0,0,0,154.05,79.55Z" transform="translate(-5.06 -5.06)"/><path class="cls-4" d="M59.81,100.54H27.07a14.14,14.14,0,0,0,0-26H45.54a14.14,14.14,0,0,0,0-28.27H12.9a74.44,74.44,0,0,0,10.79,82.51H59.81a14.14,14.14,0,1,0,0-28.27Z" transform="translate(-5.06 -5.06)"/><path class="cls-4" d="M122.54,108a5.19,5.19,0,0,1-5.18,5.19H103.89A5.19,5.19,0,0,1,98.71,108h0a5.18,5.18,0,0,1,5.18-5.18h13.47a5.18,5.18,0,0,1,5.18,5.18Z" transform="translate(-5.06 -5.06)"/></svg>