<svg id="Capa_1" data-name="Capa 1" xmlns="http://www.w3.org/2000/svg" viewBox="0 0 215.62 61.91"><defs><style>.cls-1{fill:#a0a0a5;}.cls-2{fill:#82878c;}.cls-3{fill:#696e73;}</style></defs><path class="cls-1" d="M215.62,64.31A124.81,124.81,0,0,0,0,64.31Z" transform="translate(0 -2.39)"/><ellipse class="cls-2" cx="172.73" cy="42.98" rx="15.15" ry="11.8"/><path class="cls-3" d="M172.73,33.57a16.76,16.76,0,0,0-12.33,4.94,18.17,18.17,0,0,1,8.77-2.18c8.37,0,15.15,5.28,15.15,11.8A10.12,10.12,0,0,1,181.5,55c3.86-2.14,6.38-5.65,6.38-9.62C187.88,38.85,181.1,33.57,172.73,33.57Z" transform="translate(0 -2.39)"/><ellipse class="cls-2" cx="40.69" cy="30.42" rx="8.84" ry="6.88" transform="translate(-8.31 14.61) rotate(-21.46)"/><path class="cls-3" d="M38.18,24a9.75,9.75,0,0,0-5.64,5.31,10.53,10.53,0,0,1,4.29-3.05c4.55-1.79,9.36-.37,10.75,3.17a5.89,5.89,0,0,1-.07,4.33,6.58,6.58,0,0,0,1.41-6.59C47.53,23.64,42.72,22.22,38.18,24Z" transform="translate(0 -2.39)"/><path class="cls-2" d="M41.09,54.23c.4,4.39-3.85,8.36-9.49,8.87s-10.53-2.65-10.92-7,3.86-8.36,9.49-8.86S40.7,49.84,41.09,54.23Z" transform="translate(0 -2.39)"/><path class="cls-3" d="M30.17,47.2a11.3,11.3,0,0,0-8,4.07,12.23,12.23,0,0,1,5.78-2c5.63-.5,10.52,2.64,10.92,7a6.83,6.83,0,0,1-1.5,4.8c2.48-1.68,4-4.19,3.72-6.87C40.7,49.84,35.81,46.69,30.17,47.2Z" transform="translate(0 -2.39)"/></svg>