<svg id="Capa_1" data-name="Capa 1" xmlns="http://www.w3.org/2000/svg" viewBox="0 0 195.73 69.71"><defs><style>.cls-1{fill:#282d62;}</style></defs><rect class="cls-1" y="23.24" width="184.31" height="23.24" rx="11.62"/><path class="cls-1" d="M153.1,62.5a11.62,11.62,0,0,1-11.62,11.62H33.67A11.62,11.62,0,0,1,22.05,62.5h0A11.61,11.61,0,0,1,33.67,50.89H141.48A11.62,11.62,0,0,1,153.1,62.5Z" transform="translate(-1.29 -4.41)"/><path class="cls-1" d="M185.4,27.65H56.83A11.62,11.62,0,0,1,45.21,16h0A11.62,11.62,0,0,1,56.83,4.41H185.4A11.62,11.62,0,0,1,197,16h0A11.62,11.62,0,0,1,185.4,27.65Z" transform="translate(-1.29 -4.41)"/></svg>