<svg id="Capa_1" data-name="Capa 1" xmlns="http://www.w3.org/2000/svg" viewBox="0 0 174.59 75.48"><defs><style>.cls-1{fill:#282d62;}</style></defs><path class="cls-1" d="M144.42,22.12H40.76a10,10,0,0,1-9.95-10h0a10,10,0,0,1,10-10H144.42a10,10,0,0,1,10,10h0A10,10,0,0,1,144.42,22.12Z" transform="translate(-11.38 -2.2)"/><path class="cls-1" d="M125,77.69H21.34a10,10,0,0,1-10-10h0a10,10,0,0,1,10-10H125a10,10,0,0,1,9.95,10h0A10,10,0,0,1,125,77.69Z" transform="translate(-11.38 -2.2)"/><path class="cls-1" d="M176,50.65H130.74a10,10,0,0,1-10-10h0a10,10,0,0,1,10-10H176a10,10,0,0,1,9.95,10h0A10,10,0,0,1,176,50.65Z" transform="translate(-11.38 -2.2)"/><path class="cls-1" d="M90.58,50.65H74.34a10,10,0,0,1-10-10h0a10,10,0,0,1,10-10H90.58a10,10,0,0,1,10,10h0A10,10,0,0,1,90.58,50.65Z" transform="translate(-11.38 -2.2)"/></svg>