<svg id="Capa_1" data-name="Capa 1" xmlns="http://www.w3.org/2000/svg" viewBox="0 0 194.92 73.72"><defs><style>.cls-1{fill:#282d62;}</style></defs><path class="cls-1" d="M196.79,39.66A12.28,12.28,0,0,1,184.51,52H14.16A12.28,12.28,0,0,1,1.88,39.66h0A12.29,12.29,0,0,1,14.16,27.37H184.51a12.29,12.29,0,0,1,12.28,12.29Z" transform="translate(-1.88 -2.8)"/><path class="cls-1" d="M150.14,76.52h-114A12.28,12.28,0,0,1,23.84,64.23h0A12.28,12.28,0,0,1,36.12,52h114a12.28,12.28,0,0,1,12.28,12.28h0A12.28,12.28,0,0,1,150.14,76.52Z" transform="translate(-1.88 -2.8)"/><path class="cls-1" d="M142.58,27.37h-82A12.28,12.28,0,0,1,48.33,15.09h0A12.28,12.28,0,0,1,60.61,2.8h82a12.29,12.29,0,0,1,12.29,12.29h0A12.28,12.28,0,0,1,142.58,27.37Z" transform="translate(-1.88 -2.8)"/></svg>