<svg id="Capa_1" data-name="Capa 1" xmlns="http://www.w3.org/2000/svg" viewBox="0 0 141.4 142.85"><defs><style>.cls-1{fill:#a8dbf2;}.cls-2{fill:#ed691f;}.cls-3{fill:#3fc0f0;}.cls-4{fill:#41a0d8;}.cls-5{fill:#f18618;}.cls-6{fill:none;stroke:#ed691f;stroke-linecap:round;stroke-miterlimit:10;stroke-width:5.91px;}</style></defs><polygon class="cls-1" points="66.76 109.95 96.72 60.53 92.55 58 63.21 106.4 66.76 109.95"/><polygon class="cls-1" points="36.45 79.64 84.85 50.31 82.32 46.13 32.9 76.09 36.45 79.64"/><polygon class="cls-2" points="67.75 98.91 63.21 106.4 66.76 109.95 71.3 102.46 67.75 98.91"/><polygon class="cls-2" points="40.39 71.55 32.9 76.09 36.45 79.64 43.94 75.1 40.39 71.55"/><circle class="cls-3" cx="105.31" cy="36.09" r="36.09"/><path class="cls-4" d="M140,19.07l-51,51a36.08,36.08,0,0,0,51-51Z" transform="translate(-8.86 -8.13)"/><path class="cls-5" d="M94.16,49.17c-2.28,1.39-5.83-.29-7.93-3.74s-2-7.37.31-8.75,5.82.28,7.92,3.73S96.43,47.78,94.16,49.17Z" transform="translate(-8.86 -8.13)"/><polygon class="cls-1" points="3.58 81.26 83.33 36.28 80.93 32.03 0 77.68 3.58 81.26"/><path class="cls-2" d="M110.67,65.68c-1.39,2.27.28,5.82,3.73,7.93s7.37,2,8.76-.31-.29-5.82-3.74-7.93S112.05,63.41,110.67,65.68Z" transform="translate(-8.86 -8.13)"/><polygon class="cls-1" points="65.17 142.85 110.82 61.92 106.57 59.53 61.59 139.27 65.17 142.85"/><polygon class="cls-5" points="8.24 73.04 0 77.68 3.58 81.26 11.82 76.62 8.24 73.04"/><polygon class="cls-5" points="66.23 131.03 61.59 139.27 65.17 142.85 69.82 134.61 66.23 131.03"/><line class="cls-6" x1="79.79" y1="10.57" x2="130.83" y2="61.6"/></svg>