<svg id="Capa_1" data-name="Capa 1" xmlns="http://www.w3.org/2000/svg" viewBox="0 0 106.67 151.67"><defs><style>.cls-1{fill:#fff;}.cls-2{fill:#e74b55;}.cls-3{fill:#6cc4c8;}.cls-4{fill:#fdc20d;}</style></defs><path class="cls-1" d="M71.91,61.58a1.17,1.17,0,0,1-2.12,0L64.67,50.19l-11.4-5.13a1.17,1.17,0,0,1,0-2.12l11.4-5.12,5.12-11.4a1.17,1.17,0,0,1,2.12,0L77,37.82l11.4,5.12a1.17,1.17,0,0,1,0,2.12L77,50.19Z" transform="translate(-26.22 -3.72)"/><path class="cls-1" d="M72.47,138.58a1.64,1.64,0,0,1-3.24,0l-1.85-11.92a6.54,6.54,0,0,0-5.47-5.47L50,119.34a1.64,1.64,0,0,1,0-3.24l11.92-1.85a6.55,6.55,0,0,0,5.47-5.47l1.85-11.92a1.64,1.64,0,0,1,3.24,0l1.85,11.92a6.55,6.55,0,0,0,5.47,5.47l11.92,1.85a1.64,1.64,0,0,1,0,3.24l-11.92,1.85a6.54,6.54,0,0,0-5.47,5.47Z" transform="translate(-26.22 -3.72)"/><path class="cls-2" d="M119.12,60.35A1.16,1.16,0,0,1,121.2,60l3.39,4.92,5.8,1.42a1.16,1.16,0,0,1,.86.92,1.14,1.14,0,0,1-.48,1.16l-4.91,3.4-1.43,5.79a1.16,1.16,0,0,1-.92.86,1.13,1.13,0,0,1-1.16-.48L119,73l-5.8-1.43a1.16,1.16,0,0,1-.86-.91,1.18,1.18,0,0,1,.48-1.17l4.91-3.39Z" transform="translate(-26.22 -3.72)"/><path class="cls-3" d="M35.28,136.77a1.16,1.16,0,0,1,1.09-.62,1.14,1.14,0,0,1,1,.74l2.14,5.57,5.3,2.75a1.15,1.15,0,0,1-.12,2.11l-5.57,2.14-2.75,5.3a1.13,1.13,0,0,1-1.09.62,1.16,1.16,0,0,1-1-.74l-2.14-5.57-5.3-2.75a1.15,1.15,0,0,1-.62-1.09,1.18,1.18,0,0,1,.74-1l5.57-2.14Z" transform="translate(-26.22 -3.72)"/><path class="cls-4" d="M121.78,108.5a5.56,5.56,0,1,1,5.55,5.55A5.55,5.55,0,0,1,121.78,108.5Z" transform="translate(-26.22 -3.72)"/><path class="cls-4" d="M111.89,120.69a3,3,0,1,1,3,3A3,3,0,0,1,111.89,120.69Z" transform="translate(-26.22 -3.72)"/><path class="cls-4" d="M49.62,22.77a3,3,0,1,1,3,3A3,3,0,0,1,49.62,22.77Z" transform="translate(-26.22 -3.72)"/><path class="cls-4" d="M53.75,7.59a3.87,3.87,0,1,1,3.87,3.87A3.87,3.87,0,0,1,53.75,7.59Z" transform="translate(-26.22 -3.72)"/></svg>